# xmcd CD database file
#
# Track frame offsets:
#	150
#	14683
#	27937
#	41073
#	53472
#	65960
#	79751
#	94310
#	108605
#	122827
#	136239
#	149214
#	161986
#	176246
#	190757
#	204125
#	219413
#	232403
#	246411
#	260201
#	273457
#	287538
#	301180
#	314214
#
# Disc length: 4391 seconds
#
# Revision: 0
# Processed by: cddbd v1.5.2PL0 Copyright (c) Steve Scherf et al.
# Submitted via: CDex 1.51
#
DISCID=85112518
DTITLE=Various Artist - Dance Bands USA From 1923 To 1932
DYEAR=1932
DGENRE=Jazz
TTITLE0=Isham Jones - Who's Sorry Now
TTITLE1=Carl Fenton's Orchestra - Last Night On The Back Porch
TTITLE2=The Columbians - Honey, I'm In Love With You
TTITLE3=Ted Lewis and His Band - Drifting And Dreaming
TTITLE4=Harry Archer and His Orchestra - Who
TTITLE5=Paul Specht and His Orchestra - Show That Fellow The Door
TTITLE6=Leo Reisman and His Orchestra - Bye-Bye, Blackbird
TTITLE7=Howard Lanin and His Orchestra - Black Bottom
TTITLE8=Vincent Lopez and His Casa Loma Orchestra - I'm On My Way Home
TTITLE9=The Knickerbockers - The Kinkajou
TTITLE10=Cass Hagan and His Hotel Manger Orchestra - Hallelujah
TTITLE11=Harry Reser's Syncopators - Shaking The Blues Away
TTITLE12=Don Voorhees and His Orchestra - Can't Help Lovin' Dat Man
TTITLE13=Paul Whiteman and His Orchestra - Ol' Man River
TTITLE14=Ted Lewis and His Band - Mary Ann
TTITLE15=Nat Shilkret and His Orchestra - That's My Weakness Now
TTITLE16=Ipana Troubadours - A Precious Little Thing Called Love
TTITLE17=Earl Burnett and His L. A. Biltmore Hotel Orchestra - The Wedding Of The Painted Doll
TTITLE18=Jean Goldkette and His Orchestra - Tip-Toe Thru The Tulips
TTITLE19=Wayne King and His Orchestra - Song Of The Islands
TTITLE20=Hotel Pennsylvania Orchestra - The Woman In The Shoe
TTITLE21=Carolina Club Orchestra - I Found A Million Dollar Baby
TTITLE22=Victor Young and His Orchestra - Two Little, Blue Little Eyes
TTITLE23=Ben Selvin and His Orchestra - You're Getting To Be A Habit With Me
EXTD=YEAR: 1932
EXTT0=
EXTT1=
EXTT2=
EXTT3=
EXTT4=
EXTT5=
EXTT6=
EXTT7=
EXTT8=
EXTT9=
EXTT10=
EXTT11=
EXTT12=
EXTT13=
EXTT14=
EXTT15=
EXTT16=
EXTT17=
EXTT18=
EXTT19=
EXTT20=
EXTT21=
EXTT22=
EXTT23=
PLAYORDER=
